<svg width="35.000000" height="46.465088" viewBox="0 0 35 46.4651" fill="none" xmlns="http://www.w3.org/2000/svg" xmlns:xlink="http://www.w3.org/1999/xlink">
	<desc>
			Created with Pixso.
	</desc>
	<defs>
		<clipPath id="clip12_5">
			<rect id="accessibility_new" width="35.000000" height="46.465137" fill="white" fill-opacity="0"/>
		</clipPath>
	</defs>
	<rect id="accessibility_new" width="35.000000" height="46.465137" fill="#FFFFFF" fill-opacity="0"/>
	<g clip-path="url(#clip12_5)">
		<path id="矢量 2" d="M29.89 11.61C26.08 12.97 21.62 13.55 17.5 13.55C13.37 13.55 8.91 12.97 5.1 11.61L4.37 15.48C7.08 16.45 10.2 17.09 13.12 17.42L13.12 42.59L16.04 42.59L16.04 30.97L18.95 30.97L18.95 42.59L21.87 42.59L21.87 17.42C24.79 17.09 27.91 16.45 30.62 15.48L29.89 11.61ZM17.5 11.61C19.1 11.61 20.41 9.87 20.41 7.74C20.41 5.61 19.1 3.87 17.5 3.87C15.89 3.87 14.58 5.61 14.58 7.74C14.58 9.87 15.89 11.61 17.5 11.61Z" fill="#444444" fill-opacity="1.000000" fill-rule="evenodd"/>
	</g>
</svg>
